<svg aria-label="" style="color: rgb(168, 168, 168);" fill="currentColor" height="16" role="img"
    viewBox="0 0 24 24" width="16" xmlns="http://www.w3.org/2000/svg">
    <title></title>
    <path
        d="M18.44 1H5.56A4.565 4.565 0 0 0 1 5.561v12.878A4.565 4.565 0 0 0 5.56 23h12.88A4.566 4.566 0 0 0 23 18.44V5.56A4.566 4.566 0 0 0 18.44 1ZM21 18.44A2.564 2.564 0 0 1 18.44 21H5.56A2.563 2.563 0 0 1 3 18.44V5.56A2.563 2.563 0 0 1 5.56 3h12.88A2.564 2.564 0 0 1 21 5.561Z"></path>
    <path
        d="M12 16H6a1 1 0 0 0 0 2h6a1 1 0 0 0 0-2Zm6-10H6a1 1 0 0 0-1 1v6a1 1 0 0 0 1 1h12a1 1 0 0 0 1-1V7a1 1 0 0 0-1-1Zm-1 6H7V8h10Zm1 4h-2a1 1 0 0 0 0 2h2a1 1 0 0 0 0-2Z"></path>
</svg>