<?xml version="1.0" encoding="UTF-8"?>
<svg version="1.1" xmlns="http://www.w3.org/2000/svg" width="512" height="512">
    <path
        d="M0 0 C2.00487811 1.76842238 3.98708587 3.5574398 5.95605469 5.36572266 C6.56239746 5.92251709 7.16874023 6.47931152 7.79345703 7.05297852 C9.22422692 8.40454132 10.59655287 9.81749419 11.95605469 11.24072266 C11.95605469 11.90072266 11.95605469 12.56072266 11.95605469 13.24072266 C12.61605469 13.24072266 13.27605469 13.24072266 13.95605469 13.24072266 C17.21319662 16.68398699 20.05122854 20.49862309 22.95605469 24.24072266 C23.39691406 24.80275391 23.83777344 25.36478516 24.29199219 25.94384766 C53.81429198 63.8279549 66.97336964 112.91297153 61.13598633 160.6105957 C56.6892048 191.68488229 45.40670196 221.41634298 25.95605469 246.24072266 C25.42995605 246.91876953 24.90385742 247.59681641 24.36181641 248.29541016 C-5.15658581 286.07350967 -47.85651298 310.72504063 -95.4362793 317.41601562 C-120.68198522 320.42270987 -146.7340099 318.78429454 -171.04394531 311.24072266 C-171.71248535 311.04671875 -172.38102539 310.85271484 -173.06982422 310.65283203 C-197.47356837 303.5662412 -218.89909922 290.79117372 -238.04394531 274.24072266 C-238.87152344 273.53560547 -239.69910156 272.83048828 -240.55175781 272.10400391 C-257.66789966 257.16091455 -270.7447333 239.40215465 -281.04394531 219.24072266 C-281.37765137 218.59248535 -281.71135742 217.94424805 -282.05517578 217.27636719 C-302.94522109 176.19154177 -306.08503358 126.07032737 -292.45849609 82.25537109 C-289.85461624 74.32355247 -286.68826582 66.74592825 -283.04394531 59.24072266 C-282.69380371 58.5053125 -282.34366211 57.76990234 -281.98291016 57.01220703 C-272.48637738 37.26208105 -259.53359918 20.65683514 -244.04394531 5.24072266 C-243.19574219 4.39251953 -242.34753906 3.54431641 -241.47363281 2.67041016 C-175.34012095 -59.87619937 -67.77691341 -58.33736718 0 0 Z M-230.87597656 36.29150391 C-241.80300079 48.61718724 -250.22092969 62.28647684 -257.04394531 77.24072266 C-257.58921875 78.41892578 -258.13449219 79.59712891 -258.69628906 80.81103516 C-273.93848867 116.10467801 -272.54695631 157.23607727 -259.08300781 192.77734375 C-251.63324469 211.53529866 -240.61645748 227.41260364 -227.04394531 242.24072266 C-226.44453125 242.91103516 -225.84511719 243.58134766 -225.22753906 244.27197266 C-200.89204491 270.13224715 -163.48446011 285.74105363 -128.31884766 287.36669922 C-88.4041497 288.46712188 -51.61367813 277.44335078 -21.04394531 251.24072266 C-20.34011719 250.65806641 -19.63628906 250.07541016 -18.91113281 249.47509766 C-14.12577987 245.43575031 -10.04459404 241.04829628 -6.04394531 236.24072266 C-4.99400391 235.02255859 -4.99400391 235.02255859 -3.92285156 233.77978516 C22.01133584 203.1262049 33.65935656 164.31644254 30.75390625 124.46826172 C27.44655199 90.50859782 13.25869774 55.77806503 -12.04394531 32.24072266 C-17.04394531 27.24072266 -17.04394531 27.24072266 -18.45019531 25.69384766 C-23.90853055 19.86092078 -30.36757841 15.54334745 -37.04394531 11.24072266 C-37.99188965 10.62293945 -37.99188965 10.62293945 -38.95898438 9.99267578 C-99.87204342 -29.24561238 -182.39347858 -16.73988661 -230.87597656 36.29150391 Z "
        fill="gray" transform="translate(375.0439453125,118.75927734375)" />
    <path
        d="M0 0 C3.8666056 2.57773707 6.92171724 5.23544126 8.44921875 9.76171875 C9.3908122 14.91517106 8.54324266 19.39049593 5.8125 23.875 C3.48002897 26.7032828 1.02330612 29.36003465 -1.50390625 32.015625 C-4.05644747 34.73536324 -6.41418827 37.53107697 -8.75 40.4375 C-11.63598793 44.01328469 -14.59194804 47.47901318 -17.6875 50.875 C-20.80208668 54.29239372 -23.7793662 57.7802235 -26.6875 61.375 C-30.29899134 65.83920457 -34.07410694 70.10502114 -37.94140625 74.34765625 C-40.24937598 76.94462393 -42.44305863 79.60904013 -44.625 82.3125 C-48.48458603 87.08496203 -52.55949991 91.60609109 -56.71484375 96.12109375 C-59.93459519 99.70707284 -62.94655176 103.44201492 -65.97265625 107.19140625 C-68.85348507 110.68193429 -71.89684403 114.00774068 -74.9453125 117.3515625 C-77.23265904 119.92582358 -79.40298271 122.56789489 -81.5625 125.25 C-84.93304065 129.39517367 -88.37526753 133.45688856 -91.9375 137.4375 C-92.38528809 137.95038574 -92.83307617 138.46327148 -93.29443359 138.99169922 C-97.27069615 143.3754807 -100.28262034 144.72381907 -106.125 145.1875 C-111.3499692 145.32697556 -115.23534815 142.70424415 -119.07177734 139.36303711 C-120.0635843 138.38409928 -121.04718629 137.39679531 -122.0234375 136.40234375 C-122.54765289 135.87862686 -123.07186829 135.35490997 -123.61196899 134.81532288 C-124.70960846 133.71535682 -125.80359084 132.6117303 -126.89404297 131.50463867 C-128.56964896 129.80524957 -130.25838413 128.11977094 -131.94921875 126.43554688 C-133.01642251 125.36277195 -134.08285703 124.2892311 -135.1484375 123.21484375 C-135.65458588 122.70960678 -136.16073425 122.20436981 -136.68222046 121.68382263 C-140.1875 118.1060858 -140.1875 118.1060858 -140.1875 115.875 C-140.77144531 115.62878906 -141.35539062 115.38257813 -141.95703125 115.12890625 C-144.55677731 113.66740277 -145.94894437 112.09016822 -147.875 109.8125 C-153.04305088 103.8925755 -158.6132058 98.41684767 -164.24682617 92.94116211 C-174.8834507 82.47623256 -174.8834507 82.47623256 -175.1875 74.875 C-174.53970724 69.01016202 -172.82776202 65.72302216 -168.1875 61.875 C-164.91991877 59.69661251 -163.75214538 59.55327717 -159.9375 59.5 C-159.02484375 59.47164062 -158.1121875 59.44328125 -157.171875 59.4140625 C-149.38357055 60.61696816 -144.82520095 65.9764302 -139.8125 71.5625 C-133.21596651 78.76350611 -126.42286663 85.70920961 -119.42041016 92.51635742 C-118.39246338 93.5272644 -118.39246338 93.5272644 -117.34375 94.55859375 C-116.42819336 95.44889282 -116.42819336 95.44889282 -115.49414062 96.35717773 C-114.1875 97.875 -114.1875 97.875 -114.1875 99.875 C-113.1975 100.205 -112.2075 100.535 -111.1875 100.875 C-109.5 102.9375 -109.5 102.9375 -108.1875 104.875 C-104.37261059 103.36101922 -102.55673371 101.14502932 -100.0625 97.9375 C-96.89208529 93.95109331 -93.64372104 90.1165477 -90.1875 86.375 C-86.07371091 81.9051488 -82.21662703 77.28455107 -78.40234375 72.55859375 C-75.52269113 69.06949084 -72.48056124 65.74503079 -69.43359375 62.40234375 C-67.12562402 59.80537607 -64.93194137 57.14095987 -62.75 54.4375 C-58.88808325 49.66215598 -54.81075776 45.13832315 -50.65234375 40.62109375 C-48.26042703 37.95624834 -45.99495116 35.22668175 -43.75 32.4375 C-40.0965048 27.90768143 -36.25308843 23.62572937 -32.28686523 19.37329102 C-28.39076504 15.16890084 -24.7915101 10.76453382 -21.2578125 6.25 C-15.29621725 -0.58896209 -8.71368169 -3.07541707 0 0 Z "
        fill="gray" transform="translate(339.1875,184.125)" />
</svg>