<?xml version="1.0" encoding="UTF-8"?>
<svg version="1.1" xmlns="http://www.w3.org/2000/svg" width="512" height="512">
    <path
        d="M0 0 C1.01790619 0.00215515 2.03581238 0.0043103 3.08456421 0.00653076 C17.69363523 0.05620146 32.02575853 0.30709809 46.375 3.3125 C47.34985352 3.51117676 48.32470703 3.70985352 49.32910156 3.91455078 C88.38660539 12.08468046 124.82400319 27.71035417 156.375 52.3125 C157.25929688 52.98539063 158.14359375 53.65828125 159.0546875 54.3515625 C174.64162389 66.45260257 189.26666068 80.75087979 201.375 96.3125 C202.15101563 97.2715625 202.92703125 98.230625 203.7265625 99.21875 C238.25804162 142.62975232 256.81395322 197.76040062 256.69067383 253.03979492 C256.6875221 255.97938487 256.71104926 258.9179558 256.73632812 261.85742188 C256.78098737 275.23056192 255.57551542 288.12666711 253.375 301.3125 C253.09281616 303.01805054 253.09281616 303.01805054 252.80493164 304.75805664 C245.77946967 343.86954746 228.79665906 381.05202178 204.375 412.3125 C203.61574219 413.28445313 202.85648437 414.25640625 202.07421875 415.2578125 C189.73986402 430.63741644 175.93895499 445.19015196 160.375 457.3125 C159.43914062 458.07691406 158.50328125 458.84132813 157.5390625 459.62890625 C125.58628299 485.2157721 86.41988322 501.72551276 46.375 509.3125 C45.56562988 509.47621094 44.75625977 509.63992188 43.92236328 509.80859375 C13.88110013 515.67977137 -20.7615176 514.58512909 -50.625 508.3125 C-52.14794678 507.99901611 -52.14794678 507.99901611 -53.70166016 507.67919922 C-90.84546555 499.78695344 -125.70945445 483.68345578 -155.625 460.3125 C-156.59695312 459.55324219 -157.56890625 458.79398437 -158.5703125 458.01171875 C-173.94991644 445.67736402 -188.50265196 431.87645499 -200.625 416.3125 C-201.77162109 414.90871094 -201.77162109 414.90871094 -202.94140625 413.4765625 C-228.5282721 381.52378299 -245.03801276 342.35738322 -252.625 302.3125 C-252.78871094 301.50312988 -252.95242187 300.69375977 -253.12109375 299.85986328 C-258.59069558 271.87335724 -258.46977511 238.21828161 -252.625 210.3125 C-252.42632324 209.33764648 -252.22764648 208.36279297 -252.02294922 207.35839844 C-241.93598313 159.13741149 -219.89911449 114.53770064 -185.40722656 79.14160156 C-183.63301167 77.32072238 -181.87518486 75.48496071 -180.1171875 73.6484375 C-173.01562574 66.30860161 -165.60158994 59.73928631 -157.40917969 53.64355469 C-155.59628085 52.2910746 -153.80174757 50.91656557 -152.0078125 49.5390625 C-143.60124472 43.15234877 -134.85975388 37.61076633 -125.65234375 32.45166016 C-123.78933792 31.40484113 -121.94116361 30.33571119 -120.09375 29.26171875 C-83.4933446 8.69459905 -41.63834482 -0.15855121 0 0 Z M-145.4765625 93.31640625 C-147.43540872 95.13635246 -149.44795875 96.84967373 -151.5 98.5625 C-191.40439502 133.57900728 -214.10035353 188.4706144 -218.4440918 240.51220703 C-222.11773979 297.37690678 -204.1877898 353.84612809 -167.109375 397.2578125 C-165.62744852 398.90607767 -164.13220591 400.54251255 -162.62109375 402.1640625 C-160.80114754 404.12290872 -159.08782627 406.13545875 -157.375 408.1875 C-122.36484237 448.08465904 -67.4830203 470.77920488 -15.45166016 475.13598633 C35.97386958 478.3473059 87.87880642 464.18202587 129.375 433.3125 C129.96297363 432.88001953 130.55094727 432.44753906 131.15673828 432.00195312 C138.42263813 426.61980509 145.1984099 420.78854735 151.8125 414.625 C152.46283203 414.01946289 153.11316406 413.41392578 153.78320312 412.79003906 C158.27355586 408.53274163 162.38316761 404.03785153 166.375 399.3125 C166.86863037 398.73040771 167.36226074 398.14831543 167.87084961 397.54858398 C205.24593081 352.96851367 223.92970578 294.90681717 218.87890625 236.8359375 C214.06501853 189.99575799 195.65635431 145.10572691 163.37109375 110.4609375 C161.55114754 108.50209128 159.83782627 106.48954125 158.125 104.4375 C144.48125048 88.8892454 127.19716824 76.60975276 109.375 66.3125 C108.60091797 65.86519531 107.82683594 65.41789062 107.02929688 64.95703125 C27.35383834 19.62772655 -78.0840736 30.51377125 -145.4765625 93.31640625 Z "
        fill="red" transform="translate(255.625,-0.3125)" />
    <path
        d="M0 0 C0.92425781 -0.02578125 1.84851563 -0.0515625 2.80078125 -0.078125 C10.21486789 0.76461286 14.64611019 5.79321697 19.62060547 10.8425293 C20.3920137 11.61349945 21.16342194 12.3844696 21.95820618 13.17880249 C24.49754542 15.72022605 27.02610255 18.27209877 29.5546875 20.82421875 C31.31665595 22.59178439 33.07928941 24.35868737 34.84255981 26.12495422 C39.00222104 30.29488621 43.15514313 34.47143506 47.30483925 38.65128213 C52.49584466 43.87917863 57.69727374 49.09666634 62.8984375 54.31445312 C72.16982883 63.61799187 81.43194173 72.93071108 90.6875 82.25 C93.6995569 80.90030355 95.77871163 79.40265202 98.09605408 77.06176758 C98.75063095 76.40560455 99.40520782 75.74944153 100.07962036 75.07339478 C100.78674164 74.35436981 101.49386292 73.63534485 102.22241211 72.89453125 C102.97574326 72.13667328 103.7290744 71.37881531 104.50523376 70.59799194 C106.13997174 68.95229722 107.77242987 67.30433542 109.4028759 65.65438843 C111.98290027 63.0442326 114.56951895 60.44078336 117.15809631 57.83911133 C124.51652152 50.44090461 131.86221818 43.03010491 139.20483398 35.61621094 C143.69648488 31.08188125 148.19539298 26.55485443 152.69867134 22.03207397 C154.4139973 20.30617033 156.12640112 18.5773574 157.83582878 16.84561157 C160.22487264 14.42542502 162.62294532 12.01453635 165.02319336 9.60546875 C166.08083893 8.5269313 166.08083893 8.5269313 167.15985107 7.42660522 C172.13698885 2.45880757 175.84826352 -0.02164418 183.0625 -0.125 C189.15987238 0.00612629 192.77917176 1.34924554 197.1875 5.74609375 C200.85944703 9.9291925 201.84701299 13.11065755 201.9375 18.5625 C201.97617187 19.94888672 201.97617187 19.94888672 202.015625 21.36328125 C201.17288714 28.77736789 196.14428303 33.20861019 191.0949707 38.18310547 C190.32400055 38.9545137 189.5530304 39.72592194 188.75869751 40.52070618 C186.21727395 43.06004542 183.66540123 45.58860255 181.11328125 48.1171875 C179.34571561 49.87915595 177.57881263 51.64178941 175.81254578 53.40505981 C171.64261379 57.56472104 167.46606494 61.71764313 163.28621787 65.86733925 C158.05832137 71.05834466 152.84083366 76.25977374 147.62304688 81.4609375 C138.31950813 90.73232883 129.00678892 99.99444173 119.6875 109.25 C121.03719645 112.2620569 122.53484798 114.34121163 124.87573242 116.65855408 C125.53189545 117.31313095 126.18805847 117.96770782 126.86410522 118.64212036 C127.58313019 119.34924164 128.30215515 120.05636292 129.04296875 120.78491211 C129.80082672 121.53824326 130.55868469 122.2915744 131.33950806 123.06773376 C132.98520278 124.70247174 134.63316458 126.33492987 136.28311157 127.9653759 C138.8932674 130.54540027 141.49671664 133.13201895 144.09838867 135.72059631 C151.49659539 143.07902152 158.90739509 150.42471818 166.32128906 157.76733398 C170.85561875 162.25898488 175.38264557 166.75789298 179.90542603 171.26117134 C181.63132967 172.9764973 183.3601426 174.68890112 185.09188843 176.39832878 C187.51207498 178.78737264 189.92296365 181.18544532 192.33203125 183.58569336 C193.4105687 184.64333893 193.4105687 184.64333893 194.51089478 185.72235107 C199.44351623 190.66424651 201.94886503 194.4031314 202.125 201.5625 C201.99342164 207.31324811 200.60082186 211.03124814 196.6875 215.25 C191.69033002 219.88538392 187.10082577 220.79737039 180.3984375 220.71875 C173.09725173 219.45629713 168.7365596 214.71456817 163.75439453 209.6574707 C162.9829863 208.88650055 162.21157806 208.1155304 161.41679382 207.32119751 C158.87745458 204.77977395 156.34889745 202.22790123 153.8203125 199.67578125 C152.05834405 197.90821561 150.29571059 196.14131263 148.53244019 194.37504578 C144.37277896 190.20511379 140.21985687 186.02856494 136.07016075 181.84871787 C130.87915534 176.62082137 125.67772626 171.40333366 120.4765625 166.18554688 C111.20517117 156.88200813 101.94305827 147.56928892 92.6875 138.25 C89.6754431 139.59969645 87.59628837 141.09734798 85.27894592 143.43823242 C84.62436905 144.09439545 83.96979218 144.75055847 83.29537964 145.42660522 C82.58825836 146.14563019 81.88113708 146.86465515 81.15258789 147.60546875 C80.39925674 148.36332672 79.6459256 149.12118469 78.86976624 149.90200806 C77.23502826 151.54770278 75.60257013 153.19566458 73.9721241 154.84561157 C71.39209973 157.4557674 68.80548105 160.05921664 66.21690369 162.66088867 C58.85847848 170.05909539 51.51278182 177.46989509 44.17016602 184.88378906 C39.67851512 189.41811875 35.17960702 193.94514557 30.67632866 198.46792603 C28.9610027 200.19382967 27.24859888 201.9226426 25.53917122 203.65438843 C23.15012736 206.07457498 20.75205468 208.48546365 18.35180664 210.89453125 C17.64670959 211.61355621 16.94161255 212.33258118 16.21514893 213.07339478 C11.23801115 218.04119243 7.52673648 220.52164418 0.3125 220.625 C-5.78487238 220.49387371 -9.40417176 219.15075446 -13.8125 214.75390625 C-17.48444703 210.5708075 -18.47201299 207.38934245 -18.5625 201.9375 C-18.60117188 200.55111328 -18.60117188 200.55111328 -18.640625 199.13671875 C-17.79788714 191.72263211 -12.76928303 187.29138981 -7.7199707 182.31689453 C-6.94900055 181.5454863 -6.1780304 180.77407806 -5.38369751 179.97929382 C-2.84227395 177.43995458 -0.29040123 174.91139745 2.26171875 172.3828125 C4.02928439 170.62084405 5.79618737 168.85821059 7.56245422 167.09494019 C11.73238621 162.93527896 15.90893506 158.78235687 20.08878213 154.63266075 C25.31667863 149.44165534 30.53416634 144.24022626 35.75195312 139.0390625 C45.05549187 129.76767117 54.36821108 120.50555827 63.6875 111.25 C62.33780355 108.2379431 60.84015202 106.15878837 58.49926758 103.84144592 C57.84310455 103.18686905 57.18694153 102.53229218 56.51089478 101.85787964 C55.79186981 101.15075836 55.07284485 100.44363708 54.33203125 99.71508789 C53.57417328 98.96175674 52.81631531 98.2084256 52.03549194 97.43226624 C50.38979722 95.79752826 48.74183542 94.16507013 47.09188843 92.5346241 C44.4817326 89.95459973 41.87828336 87.36798105 39.27661133 84.77940369 C31.87840461 77.42097848 24.46760491 70.07528182 17.05371094 62.73266602 C12.51938125 58.24101512 7.99235443 53.74210702 3.46957397 49.23882866 C1.74367033 47.5235027 0.0148574 45.81109888 -1.71688843 44.10167122 C-4.13707498 41.71262736 -6.54796365 39.31455468 -8.95703125 36.91430664 C-9.67605621 36.20920959 -10.39508118 35.50411255 -11.13589478 34.77764893 C-16.10369243 29.80051115 -18.58414418 26.08923648 -18.6875 18.875 C-18.55637371 12.77762762 -17.21325446 9.15832824 -12.81640625 4.75 C-8.6333075 1.07805297 -5.45184245 0.09048701 0 0 Z "
        fill="red" transform="translate(164.3125,145.75)" />
</svg>