<?xml version="1.0" encoding="UTF-8"?>
<svg version="1.1" xmlns="http://www.w3.org/2000/svg" width="340" height="340">
<path d="M0 0 C1.8525778 -0.00407245 3.70515317 -0.00941809 5.557724 -0.01593018 C10.55778814 -0.02953041 15.55766521 -0.02433516 20.55773234 -0.01479292 C25.81002322 -0.00715721 31.0622989 -0.01425285 36.31459045 -0.01895142 C45.13325859 -0.0243981 53.95185117 -0.01724644 62.77050781 -0.00292969 C72.9395637 0.01338963 83.10843905 0.0081091 93.27749056 -0.0084089 C102.03541599 -0.02206086 110.79328735 -0.02392519 119.55122 -0.0160929 C124.77006171 -0.01143608 129.98881881 -0.01073628 135.20765495 -0.02070236 C140.1169999 -0.02942374 145.02611409 -0.02325644 149.93543434 -0.00601959 C151.7279815 -0.00208199 153.52054837 -0.00314151 155.31308746 -0.00980759 C173.36780112 -0.07071429 189.21676692 2.2299768 202.84008789 15.20068359 C212.99999737 26.10159133 218.56095231 39.25843264 218.54302979 54.1598053 C218.54748647 55.32345105 218.54748647 55.32345105 218.55203319 56.5106048 C218.56069534 59.10660885 218.56222635 61.70256664 218.5637207 64.29858398 C218.56835074 66.16160175 218.57337565 68.02461856 218.57876587 69.88763428 C218.59187651 74.94789954 218.59833257 80.00815155 218.60277653 85.06843114 C218.60571024 88.23297951 218.60981568 91.39752429 218.6142807 94.56207085 C218.62795394 104.47193003 218.63762067 114.38178096 218.64148259 124.29164892 C218.64595892 135.71426333 218.66348783 147.13675781 218.69248319 158.55933577 C218.71413847 167.39861928 218.72418897 176.23786915 218.72552371 185.0771789 C218.72656925 190.35144218 218.73242326 195.62559271 218.75034332 200.89982796 C218.7668899 205.8665058 218.76894766 210.83298694 218.76020432 215.79968262 C218.75943738 217.61522895 218.76373098 219.43078614 218.77366257 221.24630547 C218.85469395 236.9919364 217.04158242 251.347191 207.40258789 264.38818359 C206.99524414 264.95279297 206.58790039 265.51740234 206.16821289 266.09912109 C200.95348745 272.80795326 193.6094557 277.22848154 185.40258789 279.38818359 C185.40258789 280.04818359 185.40258789 280.70818359 185.40258789 281.38818359 C183.90537967 281.87600348 182.40461425 282.35290722 180.90258789 282.82568359 C179.64961914 283.2259375 179.64961914 283.2259375 178.37133789 283.63427734 C171.7893125 285.30576537 165.27655808 285.53119345 158.52758789 285.48583984 C157.71765381 285.4844249 156.90771973 285.48300995 156.07324219 285.48155212 C153.51631795 285.47600743 150.95948513 285.46346567 148.40258789 285.45068359 C146.65649542 285.44566143 144.91040155 285.44109979 143.16430664 285.43701172 C138.9103658 285.42605619 134.65649228 285.40883053 130.40258789 285.38818359 C129.22553729 283.0340824 129.27684004 281.64070958 129.27560425 279.01634216 C129.27278442 278.0978952 129.2699646 277.17944824 129.26705933 276.23316956 C129.27009567 274.7174662 129.27009567 274.7174662 129.27319336 273.17114258 C129.27144104 272.10931763 129.26968872 271.04749268 129.2678833 269.95349121 C129.26346834 266.43040348 129.26640134 262.90736562 129.26977539 259.38427734 C129.2691023 256.94572439 129.26813223 254.5071715 129.26687622 252.06861877 C129.26539977 246.95321007 129.26755231 241.83781879 129.2722168 236.72241211 C129.27791706 230.14899275 129.27463285 223.57561418 129.26864433 217.00219631 C129.26503987 211.9658019 129.26617672 206.92941724 129.26877213 201.89302254 C129.26944156 199.46839455 129.26861241 197.04376569 129.26629257 194.61913872 C129.26376761 191.23801178 129.2676043 187.85695199 129.27319336 184.47583008 C129.27116913 183.46333694 129.2691449 182.45084381 129.26705933 181.40766907 C129.26987915 180.49204193 129.27269897 179.57641479 129.27560425 178.63304138 C129.27616979 177.4326153 129.27616979 177.4326153 129.27674675 176.20793819 C129.40258789 174.38818359 129.40258789 174.38818359 130.40258789 173.38818359 C132.99411896 173.22822193 135.56210809 173.12879663 138.15649414 173.07177734 C138.93194077 173.05099625 139.70738739 173.03021515 140.5063324 173.00880432 C142.99249097 172.94322558 145.47875834 172.8843856 147.96508789 172.82568359 C149.64673993 172.78250626 151.32838083 172.73889223 153.01000977 172.69482422 C157.1407566 172.58753581 161.27161325 172.48629227 165.40258789 172.38818359 C166.78054595 164.40699391 167.99046969 156.42055825 169.02758789 148.38818359 C169.16165039 147.37884766 169.29571289 146.36951172 169.43383789 145.32958984 C169.56016602 144.35892578 169.68649414 143.38826172 169.81665039 142.38818359 C169.92960449 141.52193359 170.04255859 140.65568359 170.15893555 139.76318359 C170.47062443 137.12290866 170.47062443 137.12290866 170.40258789 133.38818359 C168.59286499 133.35059937 168.59286499 133.35059937 166.74658203 133.31225586 C162.28683128 133.21835837 157.82724276 133.11809526 153.36767578 133.01586914 C151.43444605 132.97245318 149.5011763 132.93078317 147.56787109 132.89086914 C144.79520587 132.83332728 142.02274332 132.7695874 139.25024414 132.70458984 C138.38045425 132.68787735 137.51066437 132.67116486 136.61451721 132.65394592 C130.5164596 132.5020553 130.5164596 132.5020553 129.40258789 131.38818359 C129.10929138 126.24361421 129.08836655 121.09622105 129.05249023 115.9440918 C129.03600656 114.21088157 129.00881772 112.47773716 128.97045898 110.74487305 C128.91527722 108.23890099 128.89374769 105.73452782 128.87915039 103.22802734 C128.85648102 102.46312485 128.83381165 101.69822235 128.81045532 100.91014099 C128.83336755 94.98571062 130.66659341 90.9776933 134.40258789 86.38818359 C139.40560779 82.60541245 143.98866296 82.26054094 150.13696289 82.07177734 C151.4324707 82.02988281 152.72797852 81.98798828 154.06274414 81.94482422 C155.42602265 81.90501688 156.78930395 81.86530454 158.15258789 81.82568359 C159.53150664 81.78246085 160.91041315 81.73884539 162.28930664 81.69482422 C165.66029979 81.58874401 169.03136616 81.48668509 172.40258789 81.38818359 C172.42723979 76.56437558 172.44542482 71.74060393 172.45751953 66.91674805 C172.46255963 65.27448895 172.46939167 63.63223436 172.47802734 61.98999023 C172.49010715 59.63442881 172.49581928 57.27892651 172.50024414 54.92333984 C172.50540543 54.18479263 172.51056671 53.44624542 172.5158844 52.68531799 C172.51608039 50.91920271 172.46453508 49.15321214 172.40258789 47.38818359 C167.95994352 42.94553923 149.27448999 45.14219286 143.12133789 45.13500977 C129.01929078 45.31643209 114.8050149 48.51851917 104.24633789 58.40771484 C88.66407101 74.48342017 88.35890354 94.4430136 87.84008789 115.45068359 C87.69571289 121.04005859 87.55133789 126.62943359 87.40258789 132.38818359 C75.52258789 132.71818359 63.64258789 133.04818359 51.40258789 133.38818359 C51.37968004 138.78170948 51.35975263 144.1750678 51.34765625 149.56860352 C51.34261558 151.40487234 51.33578312 153.24113713 51.32714844 155.07739258 C51.31507117 157.71094761 51.30935708 160.34444976 51.30493164 162.97802734 C51.29977036 163.80406967 51.29460907 164.630112 51.28929138 165.48118591 C51.28909584 167.45054727 51.34054637 169.41979973 51.40258789 171.38818359 C53.37504464 173.36064034 57.20013159 172.6195471 59.90258789 172.66943359 C61.02890625 172.69704773 61.02890625 172.69704773 62.17797852 172.72521973 C64.58609976 172.78414663 66.9942926 172.83689227 69.40258789 172.88818359 C72.56941233 172.95562989 75.73599873 173.0292978 78.90258789 173.10693359 C79.63799805 173.12050903 80.3734082 173.13408447 81.13110352 173.14807129 C86.28978608 173.27538178 86.28978608 173.27538178 87.40258789 174.38818359 C87.5002899 175.81531979 87.52890484 177.24725789 87.52957153 178.67773438 C87.53239136 179.60322083 87.53521118 180.52870728 87.53811646 181.48223877 C87.53508011 183.01736115 87.53508011 183.01736115 87.53198242 184.58349609 C87.5346109 186.19064484 87.5346109 186.19064484 87.53729248 187.83026123 C87.54171342 191.39125157 87.53877215 194.95219271 87.53540039 198.51318359 C87.53607336 200.97558604 87.53704333 203.43798841 87.53829956 205.90039062 C87.53977686 211.06885407 87.53762094 216.23730027 87.53295898 221.40576172 C87.52726169 228.04759087 87.53054052 234.68937961 87.53653145 241.33120728 C87.54013619 246.41821602 87.53899888 251.5052151 87.53640366 256.59222412 C87.53573415 259.04197189 87.53656364 261.49172052 87.53888321 263.94146729 C87.54140831 267.35862569 87.53757115 270.77571766 87.53198242 274.19287109 C87.53400665 275.21628601 87.53603088 276.23970093 87.53811646 277.29412842 C87.53529663 278.21961487 87.53247681 279.14510132 87.52957153 280.09863281 C87.52900599 281.31206863 87.52900599 281.31206863 87.52842903 282.55001831 C87.40258789 284.38818359 87.40258789 284.38818359 86.40258789 285.38818359 C83.36101701 285.49420767 80.34203188 285.53495796 77.29980469 285.53344727 C75.86546333 285.53848518 75.86546333 285.53848518 74.40214539 285.54362488 C71.21868614 285.55317564 68.03527936 285.55508079 64.85180664 285.55615234 C62.63995848 285.55936472 60.42811053 285.56272877 58.21626282 285.5662384 C53.56474313 285.57224182 48.91324204 285.57407733 44.26171875 285.57348633 C38.32492769 285.57338524 32.38825767 285.58697648 26.45149517 285.60425854 C21.87445031 285.61543146 17.29743407 285.61740383 12.72037697 285.6168766 C10.53370564 285.6180511 8.34703344 285.62244286 6.1603756 285.63020897 C-14.819522 285.69767687 -33.44109603 284.44915621 -49.59741211 269.38818359 C-50.12334961 268.90349609 -50.64928711 268.41880859 -51.19116211 267.91943359 C-54.85880942 264.09571618 -57.32598156 259.56999432 -59.84741211 254.95068359 C-60.18909424 254.33 -60.53077637 253.70931641 -60.8828125 253.06982422 C-61.20628662 252.45429688 -61.52976074 251.83876953 -61.86303711 251.20458984 C-62.14953125 250.66261963 -62.43602539 250.12064941 -62.73120117 249.56225586 C-65.15510352 243.4785889 -65.89206428 237.6403783 -65.85810852 231.13517761 C-65.86193407 230.34389428 -65.86575961 229.55261095 -65.86970109 228.73734933 C-65.8799546 226.10681284 -65.87605358 223.47649775 -65.87207031 220.84594727 C-65.87642107 218.95130717 -65.88160543 217.05666883 -65.88755798 215.16203308 C-65.90092117 210.0296806 -65.90152956 204.89740188 -65.89899468 199.76503539 C-65.897923 195.47350294 -65.90281348 191.18198529 -65.9076001 186.89045602 C-65.91868636 176.76135064 -65.91913787 166.63228234 -65.91308594 156.50317383 C-65.90704829 146.07060132 -65.91935393 135.63816376 -65.94065601 125.20561427 C-65.95829857 116.23379668 -65.96426911 107.26202194 -65.96101826 98.29018766 C-65.95920926 92.93832149 -65.96180323 87.58655155 -65.9757328 82.23470116 C-65.98834949 77.19903026 -65.98633077 72.16356892 -65.97332191 67.12790108 C-65.97096481 65.28613589 -65.97365955 63.44435578 -65.98194504 61.60260773 C-66.05782092 43.41646193 -62.64049599 28.68313696 -49.97241211 14.95068359 C-35.81614416 1.74974661 -18.44537434 -0.06850954 0 0 Z " fill="#FEFEFE" transform="translate(92.597412109375,26.61181640625)"/>
<path d="M0 0 C1.8525778 -0.00407245 3.70515317 -0.00941809 5.557724 -0.01593018 C10.55778814 -0.02953041 15.55766521 -0.02433516 20.55773234 -0.01479292 C25.81002322 -0.00715721 31.0622989 -0.01425285 36.31459045 -0.01895142 C45.13325859 -0.0243981 53.95185117 -0.01724644 62.77050781 -0.00292969 C72.9395637 0.01338963 83.10843905 0.0081091 93.27749056 -0.0084089 C102.03541599 -0.02206086 110.79328735 -0.02392519 119.55122 -0.0160929 C124.77006171 -0.01143608 129.98881881 -0.01073628 135.20765495 -0.02070236 C140.1169999 -0.02942374 145.02611409 -0.02325644 149.93543434 -0.00601959 C151.7279815 -0.00208199 153.52054837 -0.00314151 155.31308746 -0.00980759 C173.36780112 -0.07071429 189.21676692 2.2299768 202.84008789 15.20068359 C213.02447305 26.12785211 218.5825548 39.30432662 218.52284241 54.24055481 C218.52412404 55.41690075 218.52412404 55.41690075 218.52543157 56.61701125 C218.5270768 59.2410354 218.52158067 61.86499542 218.51611328 64.48901367 C218.51583118 66.37150064 218.5159896 68.25398771 218.51655579 70.13647461 C218.51684285 75.24552935 218.51096071 80.35456064 218.50398183 85.46360993 C218.49773326 90.80343142 218.4971433 96.14325343 218.49595642 101.483078 C218.49284755 111.59417534 218.48464012 121.70526187 218.47460693 131.81635445 C218.46343203 143.32773723 218.45793187 154.83912053 218.4529115 166.35050738 C218.44245716 190.02973877 218.42486628 213.70896058 218.40258789 237.38818359 C218.07258789 237.38818359 217.74258789 237.38818359 217.40258789 237.38818359 C217.40019954 236.44857001 217.39781118 235.50895643 217.39535046 234.54086971 C217.33643208 211.62795751 217.26047347 188.71514942 217.16687298 165.80235195 C217.12199794 154.72167858 217.0825643 143.64103676 217.05615234 132.56030273 C217.03310495 122.89701094 216.99963211 113.23381968 216.95388633 103.57060772 C216.93004474 98.45885029 216.91125676 93.34719185 216.90497398 88.23538017 C216.89888188 83.41315971 216.87873489 78.59119225 216.84831238 73.76906586 C216.83959776 72.00963416 216.83579574 70.25016931 216.83757973 68.49071693 C216.85037726 50.02720942 214.8133134 32.12144602 201.95336914 17.77099609 C198.29460104 14.36106108 194.03225 11.73936124 189.77758789 9.13818359 C188.14950195 8.14044922 188.14950195 8.14044922 186.48852539 7.12255859 C175.8564162 1.94237489 162.45755667 3.09003375 150.90698242 3.09765625 C149.07720672 3.09165941 147.24743353 3.08485125 145.41766357 3.07730103 C140.48368555 3.05975494 135.54977704 3.05495059 130.61577082 3.05366945 C127.52485476 3.05224122 124.43395601 3.04795906 121.34304428 3.04267502 C110.53654623 3.024215 99.73009728 3.01599966 88.92358398 3.01757812 C78.88687155 3.01877959 68.85037411 2.99766573 58.81371605 2.9660908 C50.16359937 2.93985783 41.51355264 2.92921371 32.86339653 2.93048894 C27.71152845 2.93099635 22.55985189 2.92543562 17.40802383 2.90413284 C12.56018336 2.88463067 7.71271488 2.8847071 2.86486053 2.89916611 C1.09733149 2.90124027 -0.6702216 2.89663758 -2.43770981 2.88444519 C-20.04410298 2.77096565 -35.32554432 5.32196002 -48.59741211 18.01318359 C-51.094141 20.57233071 -52.79993413 23.30344925 -54.59741211 26.38818359 C-55.09241211 27.13197266 -55.58741211 27.87576172 -56.09741211 28.64208984 C-56.59241211 29.40392578 -57.08741211 30.16576172 -57.59741211 30.95068359 C-58.33991211 32.06636719 -58.33991211 32.06636719 -59.09741211 33.20458984 C-64.16363922 43.95712916 -64.02965794 55.01434097 -63.9855957 66.6184082 C-63.98966841 68.43157771 -63.99501419 70.24474472 -64.00152588 72.0579071 C-64.01512312 76.95053802 -64.00993212 81.84297771 -64.00038862 86.73561168 C-63.99275131 91.87579378 -63.99984899 97.01596038 -64.00454712 102.15614319 C-64.00999336 110.78649816 -64.00284335 119.41677592 -63.98852539 128.04711914 C-63.97220627 137.99805009 -63.97748664 147.94879653 -63.99400461 157.89972299 C-64.00765799 166.4708138 -64.0095202 175.04184935 -64.0016886 183.61294752 C-63.99703254 188.72000718 -63.99632984 193.82698038 -64.00629807 198.93403435 C-64.01502154 203.73832182 -64.00884841 208.54237357 -63.9916153 213.34663582 C-63.98767879 215.10048152 -63.98873529 216.85434737 -63.99540329 218.60818481 C-64.06266037 238.10981283 -60.40487947 254.05265192 -46.51538086 268.56005859 C-36.65380676 277.95968523 -24.19188604 280.39243134 -10.94116211 280.91552734 C-9.9173645 280.95685287 -8.89356689 280.99817841 -7.83874512 281.04075623 C10.06495295 281.69416708 27.98984106 281.76062887 45.90258789 281.95068359 C58.93758789 282.09505859 71.97258789 282.23943359 85.40258789 282.38818359 C85.40258789 246.74818359 85.40258789 211.10818359 85.40258789 174.38818359 C73.19258789 174.38818359 60.98258789 174.38818359 48.40258789 174.38818359 C48.37968236 168.28258704 48.35975422 162.17713843 48.34765625 156.0715332 C48.34261501 153.99275203 48.33578215 151.91397443 48.32714844 149.83520508 C48.31507367 146.85415774 48.30935765 143.8731571 48.30493164 140.89208984 C48.29977036 139.95667862 48.29460907 139.0212674 48.28929138 138.05751038 C48.28921585 137.19669357 48.28914032 136.33587677 48.2890625 135.44897461 C48.28684189 134.68730484 48.28462128 133.92563507 48.28233337 133.1408844 C48.40258789 131.38818359 48.40258789 131.38818359 49.40258789 130.38818359 C52.06884819 130.29963199 54.70905903 130.27293686 57.37524414 130.29052734 C58.17288681 130.29194229 58.97052948 130.29335724 59.79234314 130.29481506 C62.34996224 130.30043043 64.90749507 130.31298547 67.46508789 130.32568359 C69.19490434 130.33069662 70.92472215 130.33525987 72.65454102 130.33935547 C76.90392342 130.35040485 81.15324101 130.36767973 85.40258789 130.38818359 C85.38164062 129.1286084 85.36069336 127.8690332 85.33911133 126.57128906 C85.26592353 121.83377757 85.22050566 117.09631449 85.18286133 112.35839844 C85.16292335 110.31990109 85.13576287 108.28145959 85.10083008 106.24316406 C84.69296794 81.8074235 84.69296794 81.8074235 90.40258789 70.38818359 C91.06258789 70.38818359 91.72258789 70.38818359 92.40258789 70.38818359 C92.83571289 69.18162109 92.83571289 69.18162109 93.27758789 67.95068359 C94.40258789 65.38818359 94.40258789 65.38818359 96.40258789 64.38818359 C96.83571289 63.64568359 97.26883789 62.90318359 97.71508789 62.13818359 C99.60412908 59.05974609 101.79013798 56.87001101 104.40258789 54.38818359 C104.91821289 53.81068359 105.43383789 53.23318359 105.96508789 52.63818359 C107.70673967 51.12370378 109.18527368 50.90555691 111.40258789 50.38818359 C111.73258789 49.72818359 112.06258789 49.06818359 112.40258789 48.38818359 C114.47680664 47.35302734 114.47680664 47.35302734 117.09008789 46.32568359 C117.93958008 45.98408203 118.78907227 45.64248047 119.66430664 45.29052734 C125.31139654 43.42964608 130.86538353 43.23944856 136.76586914 43.25537109 C137.55728806 43.25441437 138.34870697 43.25345764 139.16410828 43.25247192 C140.8323881 43.25179412 142.50067062 43.25362045 144.16894531 43.2578125 C146.69675764 43.26314493 149.22439056 43.25786498 151.75219727 43.25146484 C153.38175494 43.25212611 155.01131251 43.25340828 156.64086914 43.25537109 C157.75695305 43.25233475 157.75695305 43.25233475 158.89558411 43.24923706 C164.19310568 43.27240638 169.06834113 43.79548951 174.40258789 44.38818359 C174.40258789 57.25818359 174.40258789 70.12818359 174.40258789 83.38818359 C164.17258789 83.38818359 153.94258789 83.38818359 143.40258789 83.38818359 C143.40258789 83.05818359 143.40258789 82.72818359 143.40258789 82.38818359 C152.97258789 82.05818359 162.54258789 81.72818359 172.40258789 81.38818359 C172.42549809 76.56431292 172.44542475 71.74062971 172.45751953 66.91674805 C172.46255963 65.27448895 172.46939167 63.63223436 172.47802734 61.98999023 C172.49010715 59.63442881 172.49581928 57.27892651 172.50024414 54.92333984 C172.50540543 54.18479263 172.51056671 53.44624542 172.5158844 52.68531799 C172.51608039 50.91920271 172.46453508 49.15321214 172.40258789 47.38818359 C167.95994352 42.94553923 149.27448999 45.14219286 143.12133789 45.13500977 C129.01929078 45.31643209 114.8050149 48.51851917 104.24633789 58.40771484 C88.66407101 74.48342017 88.35890354 94.4430136 87.84008789 115.45068359 C87.69571289 121.04005859 87.55133789 126.62943359 87.40258789 132.38818359 C75.52258789 132.71818359 63.64258789 133.04818359 51.40258789 133.38818359 C51.37968004 138.78170948 51.35975263 144.1750678 51.34765625 149.56860352 C51.34261558 151.40487234 51.33578312 153.24113713 51.32714844 155.07739258 C51.31507117 157.71094761 51.30935708 160.34444976 51.30493164 162.97802734 C51.29977036 163.80406967 51.29460907 164.630112 51.28929138 165.48118591 C51.28909584 167.45054727 51.34054637 169.41979973 51.40258789 171.38818359 C53.37504464 173.36064034 57.20013159 172.6195471 59.90258789 172.66943359 C61.02890625 172.69704773 61.02890625 172.69704773 62.17797852 172.72521973 C64.58609976 172.78414663 66.9942926 172.83689227 69.40258789 172.88818359 C72.56941233 172.95562989 75.73599873 173.0292978 78.90258789 173.10693359 C79.63799805 173.12050903 80.3734082 173.13408447 81.13110352 173.14807129 C86.28978608 173.27538178 86.28978608 173.27538178 87.40258789 174.38818359 C87.5002899 175.81531979 87.52890484 177.24725789 87.52957153 178.67773438 C87.53239136 179.60322083 87.53521118 180.52870728 87.53811646 181.48223877 C87.53508011 183.01736115 87.53508011 183.01736115 87.53198242 184.58349609 C87.5346109 186.19064484 87.5346109 186.19064484 87.53729248 187.83026123 C87.54171342 191.39125157 87.53877215 194.95219271 87.53540039 198.51318359 C87.53607336 200.97558604 87.53704333 203.43798841 87.53829956 205.90039062 C87.53977686 211.06885407 87.53762094 216.23730027 87.53295898 221.40576172 C87.52726169 228.04759087 87.53054052 234.68937961 87.53653145 241.33120728 C87.54013619 246.41821602 87.53899888 251.5052151 87.53640366 256.59222412 C87.53573415 259.04197189 87.53656364 261.49172052 87.53888321 263.94146729 C87.54140831 267.35862569 87.53757115 270.77571766 87.53198242 274.19287109 C87.53400665 275.21628601 87.53603088 276.23970093 87.53811646 277.29412842 C87.53529663 278.21961487 87.53247681 279.14510132 87.52957153 280.09863281 C87.52900599 281.31206863 87.52900599 281.31206863 87.52842903 282.55001831 C87.40258789 284.38818359 87.40258789 284.38818359 86.40258789 285.38818359 C83.36101701 285.49420767 80.34203188 285.53495796 77.29980469 285.53344727 C75.86546333 285.53848518 75.86546333 285.53848518 74.40214539 285.54362488 C71.21868614 285.55317564 68.03527936 285.55508079 64.85180664 285.55615234 C62.63995848 285.55936472 60.42811053 285.56272877 58.21626282 285.5662384 C53.56474313 285.57224182 48.91324204 285.57407733 44.26171875 285.57348633 C38.32492769 285.57338524 32.38825767 285.58697648 26.45149517 285.60425854 C21.87445031 285.61543146 17.29743407 285.61740383 12.72037697 285.6168766 C10.53370564 285.6180511 8.34703344 285.62244286 6.1603756 285.63020897 C-14.819522 285.69767687 -33.44109603 284.44915621 -49.59741211 269.38818359 C-50.12334961 268.90349609 -50.64928711 268.41880859 -51.19116211 267.91943359 C-54.85880942 264.09571618 -57.32598156 259.56999432 -59.84741211 254.95068359 C-60.18909424 254.33 -60.53077637 253.70931641 -60.8828125 253.06982422 C-61.20628662 252.45429688 -61.52976074 251.83876953 -61.86303711 251.20458984 C-62.14953125 250.66261963 -62.43602539 250.12064941 -62.73120117 249.56225586 C-65.15510352 243.4785889 -65.89206428 237.6403783 -65.85810852 231.13517761 C-65.86193407 230.34389428 -65.86575961 229.55261095 -65.86970109 228.73734933 C-65.8799546 226.10681284 -65.87605358 223.47649775 -65.87207031 220.84594727 C-65.87642107 218.95130717 -65.88160543 217.05666883 -65.88755798 215.16203308 C-65.90092117 210.0296806 -65.90152956 204.89740188 -65.89899468 199.76503539 C-65.897923 195.47350294 -65.90281348 191.18198529 -65.9076001 186.89045602 C-65.91868636 176.76135064 -65.91913787 166.63228234 -65.91308594 156.50317383 C-65.90704829 146.07060132 -65.91935393 135.63816376 -65.94065601 125.20561427 C-65.95829857 116.23379668 -65.96426911 107.26202194 -65.96101826 98.29018766 C-65.95920926 92.93832149 -65.96180323 87.58655155 -65.9757328 82.23470116 C-65.98834949 77.19903026 -65.98633077 72.16356892 -65.97332191 67.12790108 C-65.97096481 65.28613589 -65.97365955 63.44435578 -65.98194504 61.60260773 C-66.05782092 43.41646193 -62.64049599 28.68313696 -49.97241211 14.95068359 C-35.81614416 1.74974661 -18.44537434 -0.06850954 0 0 Z " fill="#ABABAB" transform="translate(92.597412109375,26.61181640625)"/>
<path d="M0 0 C-1.36125 0.86625 -1.36125 0.86625 -2.75 1.75 C-7.56973923 4.91196308 -7.56973923 4.91196308 -10.58569336 9.63574219 C-11.17891348 13.02097712 -11.23727929 16.40070895 -11.31640625 19.828125 C-11.34438293 20.82465088 -11.34438293 20.82465088 -11.3729248 21.84130859 C-11.44095681 24.31074379 -11.50127465 26.78038667 -11.5625 29.25 C-11.7790625 37.54125 -11.7790625 37.54125 -12 46 C1.86 46 15.72 46 30 46 C30 52.53312152 29.91136735 57.80317266 28.625 64 C26.82308142 73.02779407 26.03328693 81.70041759 25 91 C12.79 91 0.58 91 -12 91 C-12 126.31 -12 161.62 -12 198 C4.17 197.67 20.34 197.34 37 197 C37 196.34 37 195.68 37 195 C38.24460783 194.32332002 39.49596896 193.65905281 40.75 193 C41.79414063 192.443125 41.79414063 192.443125 42.859375 191.875 C45 191 45 191 49 191 C49.04125 190.401875 49.0825 189.80375 49.125 189.1875 C50 187 50 187 52.625 185.75 C60.49914868 181.66710809 66.2946235 172.84304634 69.1953125 164.60546875 C70.18364577 161.41584773 71.1210177 158.22129826 72 155 C72.66 155 73.32 155 74 155 C72.8700069 167.71242239 66.98960686 178.71882676 57.625 187.375 C53.50652991 190.64694852 47.38924048 195 42 195 C42 195.66 42 196.32 42 197 C40.50279178 197.48781989 39.00202636 197.96472363 37.5 198.4375 C36.6646875 198.70433594 35.829375 198.97117187 34.96875 199.24609375 C28.38672461 200.91758178 21.87397019 201.14300985 15.125 201.09765625 C14.31506592 201.0962413 13.50513184 201.09482635 12.6706543 201.09336853 C10.11373006 201.08782383 7.55689724 201.07528207 5 201.0625 C3.25390753 201.05747784 1.50781366 201.05291619 -0.23828125 201.04882812 C-4.49222209 201.0378726 -8.74609561 201.02064694 -13 201 C-14.1770506 198.6458988 -14.12574785 197.25252598 -14.12698364 194.62815857 C-14.13121338 193.25048813 -14.13121338 193.25048813 -14.13552856 191.84498596 C-14.13350433 190.83451706 -14.1314801 189.82404816 -14.12939453 188.78295898 C-14.13114685 187.72113403 -14.13289917 186.65930908 -14.13470459 185.56530762 C-14.13911955 182.04221989 -14.13618656 178.51918202 -14.1328125 174.99609375 C-14.13348559 172.55754079 -14.13445566 170.11898791 -14.13571167 167.68043518 C-14.13718812 162.56502647 -14.13503558 157.4496352 -14.13037109 152.33422852 C-14.12467083 145.76080915 -14.12795504 139.18743059 -14.13394356 132.61401272 C-14.13754802 127.5776183 -14.13641117 122.54123364 -14.13381577 117.50483894 C-14.13314633 115.08021096 -14.13397548 112.65558209 -14.13629532 110.23095512 C-14.13882028 106.84982818 -14.13498359 103.46876839 -14.12939453 100.08764648 C-14.13141876 99.07515335 -14.13344299 98.06266022 -14.13552856 97.01948547 C-14.13129883 95.64604477 -14.13129883 95.64604477 -14.12698364 94.24485779 C-14.12660662 93.44457374 -14.12622959 92.64428968 -14.12584114 91.8197546 C-14 90 -14 90 -13 89 C-10.40846893 88.84003834 -7.8404798 88.74061303 -5.24609375 88.68359375 C-4.47064713 88.66281265 -3.6952005 88.64203156 -2.89625549 88.62062073 C-0.41009692 88.55504198 2.07617045 88.49620201 4.5625 88.4375 C6.24415204 88.39432267 7.92579294 88.35070864 9.60742188 88.30664062 C13.73816871 88.19935221 17.86902536 88.09810868 22 88 C23.37795806 80.01881032 24.5878818 72.03237466 25.625 64 C25.82609375 62.48599609 25.82609375 62.48599609 26.03125 60.94140625 C26.22074219 59.48541016 26.22074219 59.48541016 26.4140625 58 C26.58349365 56.700625 26.58349365 56.700625 26.75634766 55.375 C27.06803654 52.73472506 27.06803654 52.73472506 27 49 C25.1902771 48.96241577 25.1902771 48.96241577 23.34399414 48.92407227 C18.88424339 48.83017477 14.42465487 48.72991167 9.96508789 48.62768555 C8.03185815 48.58426959 6.09858841 48.54259958 4.1652832 48.50268555 C1.39261798 48.44514369 -1.37984457 48.3814038 -4.15234375 48.31640625 C-5.45702858 48.29133751 -5.45702858 48.29133751 -6.78807068 48.26576233 C-12.88612829 48.11387171 -12.88612829 48.11387171 -14 47 C-14.29329652 41.85543062 -14.31422134 36.70803746 -14.35009766 31.5559082 C-14.36658133 29.82269797 -14.39377017 28.08955356 -14.43212891 26.35668945 C-14.48731067 23.8507174 -14.5088402 21.34634423 -14.5234375 18.83984375 C-14.54610687 18.07494125 -14.56877625 17.31003876 -14.59213257 16.5219574 C-14.56918062 10.58725623 -12.72217818 6.60681355 -9 2 C-5.75552233 -0.61140886 -3.95601066 -1.61170805 0 0 Z " fill="#B0B0B0" transform="translate(236,111)"/>
<path d="M0 0 C1.85228383 -0.0037881 3.70456482 -0.00929218 5.55683899 -0.01637268 C10.56534593 -0.03028338 15.57350763 -0.01918701 20.58199525 -0.00266147 C25.83963395 0.01124282 31.09725369 0.0047226 36.35490417 0.00120544 C45.18555221 -0.00149315 54.01606407 0.01194629 62.84667969 0.03515625 C73.03046957 0.06173897 83.21403147 0.06351958 93.39784414 0.05176789 C103.22227166 0.04095527 113.04661738 0.04720605 122.87103844 0.06132317 C127.03857056 0.0670553 131.20604227 0.06702216 135.37357521 0.06225777 C140.29111411 0.05745443 145.2084063 0.0677275 150.12589836 0.08921242 C151.92166436 0.09473594 153.71745428 0.09528684 155.51322174 0.09025955 C173.57558509 0.04606832 189.43689371 2.33690988 203.06713867 15.31420898 C213.25152383 26.2413775 218.80960558 39.41785202 218.74989319 54.3540802 C218.75117483 55.53042614 218.75117483 55.53042614 218.75248235 56.73053664 C218.75412758 59.35456079 218.74863145 61.97852081 218.74316406 64.60253906 C218.74288196 66.48502603 218.74304038 68.3675131 218.74360657 70.25 C218.74389363 75.35905474 218.73801149 80.46808603 218.73103261 85.57713532 C218.72478404 90.91695681 218.72419408 96.25677882 218.7230072 101.59660339 C218.71989833 111.70770073 218.7116909 121.81878727 218.70165771 131.92987984 C218.69048281 143.44126262 218.68498265 154.95264592 218.67996228 166.46403277 C218.66950794 190.14326417 218.65191706 213.82248597 218.62963867 237.50170898 C218.29963867 237.50170898 217.96963867 237.50170898 217.62963867 237.50170898 C217.62725032 236.5620954 217.62486197 235.62248182 217.62240124 234.6543951 C217.56348286 211.7414829 217.48752425 188.82867481 217.39392376 165.91587734 C217.34904872 154.83520398 217.30961508 143.75456215 217.28320312 132.67382812 C217.26015573 123.01053633 217.22668289 113.34734507 217.18093711 103.68413311 C217.15709553 98.57237568 217.13830754 93.46071724 217.13202477 88.34890556 C217.12593266 83.5266851 217.10578567 78.70471764 217.07536316 73.88259125 C217.06664854 72.12315955 217.06284652 70.3636947 217.06463051 68.60424232 C217.07742804 50.14073481 215.04036418 32.23497141 202.18041992 17.88452148 C198.52165182 14.47458647 194.25930078 11.85288663 190.00463867 9.25170898 C188.37655273 8.25397461 188.37655273 8.25397461 186.71557617 7.23608398 C176.03408166 2.03406486 162.58958884 3.21400769 150.99121094 3.24291992 C149.14683393 3.24020442 147.30245801 3.23664037 145.45808411 3.2322998 C140.48750776 3.22324452 135.51701517 3.22669033 130.5464375 3.23305798 C125.33091853 3.23814837 120.11540636 3.23341861 114.89988708 3.23028564 C106.15199504 3.22665709 97.40413689 3.23141825 88.65625 3.2409668 C78.54784809 3.25187305 68.43952674 3.24830557 58.33112675 3.23731399 C49.63529444 3.22823784 40.93948637 3.22695672 32.24365085 3.23219132 C27.05692183 3.23530615 21.87023069 3.23573324 16.6835041 3.22911835 C11.8136117 3.22333994 6.94382335 3.22735087 2.07394218 3.23890686 C0.28812711 3.24154976 -1.49769673 3.24079467 -3.2835083 3.23638153 C-5.72215883 3.23091067 -8.16047647 3.23777855 -10.59910583 3.2477417 C-11.65683635 3.24104953 -11.65683635 3.24104953 -12.73593515 3.23422217 C-17.0171967 3.26811507 -20.34233102 4.15874826 -24.37036133 5.50170898 C-26.74536133 5.12670898 -26.74536133 5.12670898 -28.37036133 4.50170898 C-19.33470237 -0.52325999 -10.00576411 -0.05843505 0 0 Z " fill="#C6C6C6" transform="translate(92.370361328125,26.498291015625)"/>
<path d="M0 0 C-0.96679688 0.35191406 -1.93359375 0.70382813 -2.9296875 1.06640625 C-15.68567344 5.84764335 -26.90416514 11.89534053 -34 24 C-34.495 24.74378906 -34.99 25.48757812 -35.5 26.25390625 C-35.995 27.01574219 -36.49 27.77757813 -37 28.5625 C-37.7425 29.67818359 -37.7425 29.67818359 -38.5 30.81640625 C-43.56622711 41.56894556 -43.43224583 52.62615738 -43.38818359 64.23022461 C-43.3922563 66.04339411 -43.39760208 67.85656113 -43.40411377 69.66972351 C-43.41771101 74.56235443 -43.41252001 79.45479411 -43.40297651 84.34742808 C-43.3953392 89.48761019 -43.40243688 94.62777679 -43.40713501 99.76795959 C-43.41258125 108.39831456 -43.40543124 117.02859232 -43.39111328 125.65893555 C-43.37479416 135.60986649 -43.38007453 145.56061293 -43.3965925 155.5115394 C-43.41024588 164.0826302 -43.41210809 172.65366575 -43.40427649 181.22476393 C-43.39962043 186.33182359 -43.39891773 191.43879679 -43.40888596 196.54585075 C-43.41760943 201.35013823 -43.4114363 206.15418997 -43.39420319 210.95845222 C-43.39026668 212.71229793 -43.39132318 214.46616378 -43.39799118 216.22000122 C-43.4653583 235.75353626 -39.77688632 251.59877104 -25.9375 266.16796875 C-21.09654393 270.74540503 -16.19203305 273.59900759 -10 276 C-10 276.99 -10 277.98 -10 279 C-22.52138691 273.62432604 -32.10357953 266.4504343 -38 254 C-39.28268345 251.80326353 -40.58045424 249.61637451 -41.88671875 247.43359375 C-44.65931247 241.37280115 -45.29510649 235.33923313 -45.26069641 228.74699402 C-45.26452196 227.95571069 -45.26834751 227.16442735 -45.27228898 226.34916574 C-45.28254249 223.71862925 -45.27864147 221.08831416 -45.2746582 218.45776367 C-45.27900896 216.56312357 -45.28419332 214.66848523 -45.29014587 212.77384949 C-45.30350906 207.641497 -45.30411745 202.50921828 -45.30158257 197.3768518 C-45.30051089 193.08531935 -45.30540137 188.7938017 -45.310188 184.50227243 C-45.32127425 174.37316704 -45.32172576 164.24409875 -45.31567383 154.11499023 C-45.30963618 143.68241773 -45.32194182 133.24998016 -45.3432439 122.81743068 C-45.36088647 113.84561309 -45.366857 104.87383835 -45.36360615 95.90200406 C-45.36179715 90.55013789 -45.36439112 85.19836795 -45.37832069 79.84651756 C-45.39093738 74.81084666 -45.38891866 69.77538533 -45.37590981 64.73971748 C-45.37355271 62.8979523 -45.37624744 61.05617219 -45.38453293 59.21442413 C-45.46040881 41.02827834 -42.04308388 26.29495337 -29.375 12.5625 C-23.016642 6.58800572 -8.87389698 -3.4130373 0 0 Z " fill="#8F8F8F" transform="translate(72,29)"/>
<path d="M0 0 C11.40194003 0 22.52035836 6.11367147 30.625 13.875 C40.63091019 24.87142814 46.17972268 37.97723398 46.12025452 52.85237122 C46.12110894 53.63660184 46.12196337 54.42083247 46.12284368 55.22882766 C46.12448891 57.85285181 46.11899278 60.47681183 46.11352539 63.10083008 C46.11324329 64.98331704 46.11340171 66.86580412 46.1139679 68.74829102 C46.11425496 73.85734576 46.10837282 78.96637705 46.10139394 84.07542634 C46.09514537 89.41524782 46.09455541 94.75506983 46.09336853 100.09489441 C46.09025966 110.20599175 46.08205223 120.31707828 46.07201904 130.42817086 C46.06084414 141.93955364 46.05534398 153.45093693 46.05032361 164.96232378 C46.03986927 188.64155518 46.02227839 212.32077699 46 236 C45.67 236 45.34 236 45 236 C44.99761165 235.06038642 44.99522329 234.12077284 44.99276257 233.15268612 C44.93384419 210.23977391 44.85788558 187.32696582 44.76428509 164.41416836 C44.71941005 153.33349499 44.67997641 142.25285317 44.65356445 131.17211914 C44.63051706 121.50882735 44.59704421 111.84563608 44.55129844 102.18242413 C44.52745685 97.07066669 44.50866887 91.95900826 44.50238609 86.84719658 C44.49629399 82.02497611 44.476147 77.20300866 44.44572449 72.38088226 C44.43700987 70.62145057 44.43320785 68.86198571 44.43499184 67.10253334 C44.44778937 48.63902583 42.41072551 30.73326242 29.55078125 16.3828125 C21.55880166 8.93436804 10.60080189 3.34487784 0 1 C0 0.67 0 0.34 0 0 Z " fill="#B9B9B9" transform="translate(265,28)"/>
<path d="M0 0 C0.79141891 -0.00095673 1.58283783 -0.00191345 2.39823914 -0.00289917 C4.06651896 -0.00357698 5.73480148 -0.00175064 7.40307617 0.00244141 C9.9308885 0.00777383 12.45852142 0.00249388 14.98632812 -0.00390625 C16.6158858 -0.00324498 18.24544337 -0.00196281 19.875 0 C20.99108391 -0.00303635 20.99108391 -0.00303635 22.12971497 -0.00613403 C27.42723654 0.01703529 32.30247199 0.54011842 37.63671875 1.1328125 C37.63671875 14.0028125 37.63671875 26.8728125 37.63671875 40.1328125 C27.40671875 40.1328125 17.17671875 40.1328125 6.63671875 40.1328125 C6.63671875 39.8028125 6.63671875 39.4728125 6.63671875 39.1328125 C20.99171875 38.6378125 20.99171875 38.6378125 35.63671875 38.1328125 C35.65962895 33.30894183 35.67955561 28.48525861 35.69165039 23.66137695 C35.69669049 22.01911786 35.70352253 20.37686327 35.7121582 18.73461914 C35.72423801 16.37905771 35.72995014 14.02355541 35.734375 11.66796875 C35.73953629 10.92942154 35.74469757 10.19087433 35.75001526 9.4299469 C35.75021125 7.66383162 35.69866594 5.89784104 35.63671875 4.1328125 C31.19407438 -0.30983187 12.50862085 1.88682177 6.35546875 1.87963867 C-7.74657836 2.06106099 -21.96085424 5.26314807 -32.51953125 15.15234375 C-47.84457655 30.96268215 -48.38290088 50.46171401 -48.92578125 71.1953125 C-48.96906117 72.74415016 -49.01267817 74.29297844 -49.05664062 75.84179688 C-49.16274191 79.60537182 -49.26427661 83.36904445 -49.36328125 87.1328125 C-49.69328125 87.1328125 -50.02328125 87.1328125 -50.36328125 87.1328125 C-50.46358471 81.58680249 -50.53541288 76.04134215 -50.58300781 70.49462891 C-50.60288807 68.61530336 -50.63000212 66.73603767 -50.66503906 64.85693359 C-50.9352785 49.96992011 -50.38022027 35.22714624 -42.36328125 22.1328125 C-41.70328125 21.8028125 -41.04328125 21.4728125 -40.36328125 21.1328125 C-39.71359375 20.0190625 -39.71359375 20.0190625 -39.05078125 18.8828125 C-37.16174006 15.804375 -34.97573116 13.61463991 -32.36328125 11.1328125 C-31.84765625 10.5553125 -31.33203125 9.9778125 -30.80078125 9.3828125 C-29.05912947 7.86833269 -27.58059546 7.65018582 -25.36328125 7.1328125 C-25.03328125 6.4728125 -24.70328125 5.8128125 -24.36328125 5.1328125 C-22.2890625 4.09765625 -22.2890625 4.09765625 -19.67578125 3.0703125 C-18.82628906 2.72871094 -17.97679687 2.38710937 -17.1015625 2.03515625 C-11.4544726 0.17427499 -5.90048561 -0.01592253 0 0 Z " fill="#868686" transform="translate(229.36328125,69.8671875)"/>
<path d="M0 0 C0.66 0 1.32 0 2 0 C0.8700069 12.71242239 -5.01039314 23.71882676 -14.375 32.375 C-18.49347009 35.64694852 -24.61075952 40 -30 40 C-30 40.66 -30 41.32 -30 42 C-31.49720822 42.48781989 -32.99797364 42.96472363 -34.5 43.4375 C-35.3353125 43.70433594 -36.170625 43.97117187 -37.03125 44.24609375 C-43.61327539 45.91758178 -50.12602981 46.14300985 -56.875 46.09765625 C-57.68493408 46.0962413 -58.49486816 46.09482635 -59.3293457 46.09336853 C-61.88626994 46.08782383 -64.44310276 46.07528207 -67 46.0625 C-68.74609247 46.05747784 -70.49218634 46.05291619 -72.23828125 46.04882812 C-76.49222209 46.0378726 -80.74609561 46.02064694 -85 46 C-85 45.34 -85 44.68 -85 44 C-83.84064941 43.97494385 -82.68129883 43.9498877 -81.48681641 43.92407227 C-77.14427523 43.82918676 -72.80186417 43.7291715 -68.45947266 43.62768555 C-66.58775905 43.58464097 -64.71601381 43.54294762 -62.84423828 43.50268555 C-60.1382498 43.4442362 -57.43241612 43.38076599 -54.7265625 43.31640625 C-53.49155502 43.29133751 -53.49155502 43.29133751 -52.2315979 43.26576233 C-46.45094407 43.12165528 -40.74557686 42.64638333 -35 42 C-35 41.34 -35 40.68 -35 40 C-33.75539217 39.32332002 -32.50403104 38.65905281 -31.25 38 C-30.55390625 37.62875 -29.8578125 37.2575 -29.140625 36.875 C-27 36 -27 36 -23 36 C-22.95875 35.401875 -22.9175 34.80375 -22.875 34.1875 C-22 32 -22 32 -19.375 30.75 C-11.50085132 26.66710809 -5.7053765 17.84304634 -2.8046875 9.60546875 C-1.81635423 6.41584773 -0.8789823 3.22129826 0 0 Z " fill="#7F7F7F" transform="translate(308,266)"/>
<path d="M0 0 C1.18288353 0.00068733 1.18288353 0.00068733 2.3896637 0.00138855 C4.04600543 0.00438934 5.7023449 0.0122097 7.35864258 0.0246582 C9.86875624 0.04289501 12.37849885 0.04516751 14.88867188 0.04492188 C16.50911771 0.04983951 18.1295611 0.0556689 19.75 0.0625 C20.85667274 0.06416924 20.85667274 0.06416924 21.98570251 0.06587219 C27.25654289 0.11295151 32.13877513 0.64128751 37.44140625 1.23046875 C37.44140625 14.10046875 37.44140625 26.97046875 37.44140625 40.23046875 C27.21140625 40.23046875 16.98140625 40.23046875 6.44140625 40.23046875 C6.44140625 39.90046875 6.44140625 39.57046875 6.44140625 39.23046875 C16.01140625 38.90046875 25.58140625 38.57046875 35.44140625 38.23046875 C35.46431645 33.40659808 35.48424311 28.58291486 35.49633789 23.7590332 C35.50137799 22.11677411 35.50821003 20.47451952 35.5168457 18.83227539 C35.52892551 16.47671396 35.53463764 14.12121166 35.5390625 11.765625 C35.54422379 11.02707779 35.54938507 10.28853058 35.55470276 9.52760315 C35.55489875 7.76148787 35.50335344 5.99549729 35.44140625 4.23046875 C30.92882941 -0.28210809 12.15867979 2.04822501 5.95361328 2.03881836 C0.35470725 2.08865263 -4.906207 2.54484049 -10.3828125 3.78515625 C-13.49590402 4.42230604 -16.39330684 4.37114817 -19.55859375 4.23046875 C-13.54960881 0.22447879 -7.00832244 -0.06806975 0 0 Z " fill="#9D9D9D" transform="translate(229.55859375,69.76953125)"/>
<path d="M0 0 C-0.96679688 0.35191406 -1.93359375 0.70382813 -2.9296875 1.06640625 C-17.40332873 6.49146009 -28.03274361 13.40778766 -35.75390625 27.11328125 C-36.35074219 28.16902344 -36.94757812 29.22476563 -37.5625 30.3125 C-38.46162109 31.91544922 -38.46162109 31.91544922 -39.37890625 33.55078125 C-40.18134766 34.76314453 -40.18134766 34.76314453 -41 36 C-41.66 36 -42.32 36 -43 36 C-36.9207223 20.18803252 -28.60016402 9.57654777 -13.296875 2.375 C-3.95497954 -1.52114598 -3.95497954 -1.52114598 0 0 Z " fill="#7A7A7A" transform="translate(72,29)"/>
<path d="M0 0 C11.40194003 0 22.52035836 6.11367147 30.625 13.875 C34.75589181 18.39032337 38.59135512 23.33260029 41 29 C40.67 29.66 40.34 30.32 40 31 C39.43152344 30.13117187 38.86304688 29.26234375 38.27734375 28.3671875 C28.97062601 14.36551775 16.8225825 4.72112424 0 1 C0 0.67 0 0.34 0 0 Z " fill="#797979" transform="translate(265,28)"/>
<path d="M0 0 C0.33 0 0.66 0 1 0 C1 2.31 1 4.62 1 7 C-11.87 7 -24.74 7 -38 7 C-37.67 6.34 -37.34 5.68 -37 5 C-19.675 4.505 -19.675 4.505 -2 4 C-1.34 2.68 -0.68 1.36 0 0 Z " fill="#C5C5C5" transform="translate(260,195)"/>
<path d="M0 0 C-1.36125 0.86625 -1.36125 0.86625 -2.75 1.75 C-7.81136914 5.13879928 -7.81136914 5.13879928 -10.75 10.25 C-10.8325 10.8275 -10.915 11.405 -11 12 C-11.66 12 -12.32 12 -13 12 C-13 23.22 -13 34.44 -13 46 C-13.33 46 -13.66 46 -14 46 C-14.12435639 41.01962213 -14.21469131 36.04016383 -14.2746582 31.05859375 C-14.2996766 29.36702719 -14.3337029 27.67556736 -14.37719727 25.984375 C-14.81420292 8.54527873 -14.81420292 8.54527873 -9 2 C-5.75552233 -0.61140886 -3.95601066 -1.61170805 0 0 Z " fill="#8A8A8A" transform="translate(236,111)"/>
<path d="M0 0 C3.2476015 1.3681385 4.71808032 2.68857767 6.625 5.625 C11.75988475 12.76183981 18.69833932 18.11246585 27 21 C27 21.99 27 22.98 27 24 C15.77101824 19.1791806 6.38272841 12.63788068 0 2 C0 1.34 0 0.68 0 0 Z " fill="#626262" transform="translate(35,284)"/>
<path d="M0 0 C-2.10116601 2.10116601 -3.39921453 2.63802511 -6.125 3.6875 C-14.50125059 7.33110178 -19.91724587 13.58765023 -25 21 C-25.33 20.01 -25.66 19.02 -26 18 C-23.56308832 13.68854088 -20.57735523 10.39390112 -17 7 C-16.2265625 6.13375 -16.2265625 6.13375 -15.4375 5.25 C-13.69584822 3.73552019 -12.21731421 3.51737332 -10 3 C-9.67 2.34 -9.34 1.68 -9 1 C-5.8035914 -0.06546953 -3.34252724 -0.07427838 0 0 Z " fill="#878787" transform="translate(214,74)"/>
<path d="M0 0 C0.99 0.33 1.98 0.66 3 1 C6.20942659 7.63830116 7.1428507 14.71461431 7 22 C6.34 21.67 5.68 21.34 5 21 C4.40671655 18.59423559 3.92032709 16.24901144 3.5 13.8125 C2.65794631 9.07016468 1.63906828 4.54276251 0 0 Z " fill="#AFAFAF" transform="translate(304,58)"/>
<path d="M0 0 C-1.00160156 0.38671875 -2.00320312 0.7734375 -3.03515625 1.171875 C-4.3777155 1.69763247 -5.72015716 2.22369027 -7.0625 2.75 C-7.71927734 3.00265625 -8.37605469 3.2553125 -9.05273438 3.515625 C-13.63012116 5.31952127 -17.77683283 7.47378817 -22 10 C-21.72973633 8.12231445 -21.72973633 8.12231445 -21 6 C-19.3894043 4.88745117 -19.3894043 4.88745117 -17.32421875 4.04296875 C-16.20563477 3.58180664 -16.20563477 3.58180664 -15.06445312 3.11132812 C-14.28005859 2.80646484 -13.49566406 2.50160156 -12.6875 2.1875 C-11.91470703 1.86330078 -11.14191406 1.53910156 -10.34570312 1.20507812 C-4.01624526 -1.33650126 -4.01624526 -1.33650126 0 0 Z " fill="#8B8B8B" transform="translate(72,29)"/>
<path d="M0 0 C7.41216681 0.35865323 12.56479472 2.35920537 19 6 C19 6.66 19 7.32 19 8 C15.59687262 6.94124926 12.98646769 5.99097846 10 4 C8.28616279 3.41162754 6.55480159 2.87280046 4.8125 2.375 C3.91144531 2.11460938 3.01039063 1.85421875 2.08203125 1.5859375 C1.39496094 1.39257812 0.70789063 1.19921875 0 1 C0 0.67 0 0.34 0 0 Z " fill="#979797" transform="translate(265,28)"/>
<path d="M0 0 C0 3.33910669 -0.52569155 4.1657978 -2.3125 6.875 C-3.84956835 9.22836453 -5.30766384 11.54695794 -6.6875 14 C-7.120625 14.66 -7.55375 15.32 -8 16 C-8.66 16 -9.32 16 -10 16 C-5.09090909 2.90909091 -5.09090909 2.90909091 0 0 Z " fill="#808080" transform="translate(39,49)"/>
<path d="M0 0 C0.99 0.33 1.98 0.66 3 1 C-0.69931697 5.27733524 -4.36889754 7.84550619 -10 9 C-10.99 8.67 -11.98 8.34 -13 8 C-11.75539217 7.32332002 -10.50403104 6.65905281 -9.25 6 C-8.20585937 5.443125 -8.20585937 5.443125 -7.140625 4.875 C-5 4 -5 4 -1 4 C-0.67 2.68 -0.34 1.36 0 0 Z " fill="#A6A6A6" transform="translate(286,298)"/>
<path d="M0 0 C4.66666667 2.33333333 9.33333333 4.66666667 14 7 C14 7.99 14 8.98 14 10 C12.03465459 9.09846541 10.07789375 8.17819891 8.125 7.25 C6.48917969 6.48429687 6.48917969 6.48429687 4.8203125 5.703125 C1.95797481 3.97462191 1.06478542 3.10000819 0 0 Z " fill="#737372" transform="translate(48,298)"/>
<path d="M0 0 C-1.5885342 4.28904235 -4.43127368 6.32345526 -8 9 C-8.66 9 -9.32 9 -10 9 C-9.74410214 5.54537888 -8.71373837 4.72618453 -6.125 2.25 C-3 0 -3 0 0 0 Z " fill="#717171" transform="translate(298,292)"/>
<path d="M0 0 C6.11485027 -0.09706112 11.93303301 0.22959149 18 1 C18 1.99 18 2.98 18 4 C17.01 3.67 16.02 3.34 15 3 C12.43365139 2.77281504 9.88321893 2.58391816 7.3125 2.4375 C6.61060547 2.39431641 5.90871094 2.35113281 5.18554688 2.30664062 C3.45724794 2.2008264 1.7286489 2.09993419 0 2 C0 1.34 0 0.68 0 0 Z " fill="#8C8C8B" transform="translate(249,70)"/>
<path d="M0 0 C0.66 0.33 1.32 0.66 2 1 C0.70910257 2.4590143 -0.58274439 3.91718851 -1.875 5.375 C-2.59429687 6.18710938 -3.31359375 6.99921875 -4.0546875 7.8359375 C-5.33295938 9.25795079 -6.64794586 10.64794586 -8 12 C-7.16751897 7.50460241 -5.34745605 4.11646358 -1.8125 1.1875 C-1.214375 0.795625 -0.61625 0.40375 0 0 Z " fill="#666666" transform="translate(196,83)"/>
<path d="M0 0 C0.66 0 1.32 0 2 0 C1.53199289 4.05606165 1.12046792 7.46588679 -1 11 C-1.66 11 -2.32 11 -3 11 C-2.01 7.37 -1.02 3.74 0 0 Z " fill="#A9A9A9" transform="translate(308,266)"/>
<path d="M0 0 C3 1 3 1 4.25 3.3125 C5.04631835 6.16597407 4.8214856 7.24802325 4 10 C3.32845067 8.71086513 2.66291141 7.41859796 2 6.125 C1.62875 5.40570313 1.2575 4.68640625 0.875 3.9453125 C0 2 0 2 0 0 Z " fill="#9C9C9C" transform="translate(304,58)"/>
<path d="M0 0 C2.99324263 1.0975223 3.84610901 1.67682892 5.25 4.625 C5.4975 5.40875 5.745 6.1925 6 7 C3.00675737 5.9024777 2.15389099 5.32317108 0.75 2.375 C0.5025 1.59125 0.255 0.8075 0 0 Z " fill="#767676" transform="translate(35,284)"/>
<path d="M0 0 C0.66 0 1.32 0 2 0 C1.40138258 2.35171131 0.73075648 4.6859378 0 7 C-0.99 7.495 -0.99 7.495 -2 8 C-2.20086443 4.28400809 -2.1519437 3.22791555 0 0 Z " fill="#6A6A6A" transform="translate(305,277)"/>
<path d="M0 0 C0.33 0.99 0.66 1.98 1 3 C-1.97 5.475 -1.97 5.475 -5 8 C-3.8141763 4.62496331 -2.72426311 2.35277269 0 0 Z " fill="#6B6B6A" transform="translate(41,44)"/>
</svg>
